# xmcd
#
# Track frame offsets: 
#        150
#        2028
#        13794
#        26626
#        42501
#        60515
#        74418
#        85739
#        105178
#        121040
#        134655
#        149602
#        163890
#        179657
#
# Disc length: 2625 seconds
#
# Revision: 0
# Processed by: cddbd v1.5.2PL0 Copyright (c) Steve Scherf et al.
# Submitted via: ExactAudioCopyFreeDBPlugin 1.0
#
DISCID=c20a3f0e
DTITLE=Marie Hodson - More Than You'll Ever Know
DYEAR=2013
DGENRE=Country
TTITLE0=Intro To Album
TTITLE1=Last Date
TTITLE2=I Know How
TTITLE3=More Than You'll Ever Know
TTITLE4=Together Again
TTITLE5=Crazy Arms
TTITLE6=Another Place, Another Time
TTITLE7=Four Walls
TTITLE8=Queen Of The Wine Bars
TTITLE9=Coalminer's Daughter
TTITLE10=The Grand Tour
TTITLE11=Who Did You Call Darlin'
TTITLE12=You're The Reason God Made Oklahoma
TTITLE13=Mansion On The Hill
EXTD=
EXTT0=
EXTT1=
EXTT2=
EXTT3=
EXTT4=
EXTT5=
EXTT6=
EXTT7=
EXTT8=
EXTT9=
EXTT10=
EXTT11=
EXTT12=
EXTT13=
PLAYORDER=
